# xmcd
#
# Track frame offsets:
#	150
#	16270
#	33338
#	49073
#	68310
#	88840
#	105315
#	118353
#	135275
#	150710
#
# Disc length: 2253 seconds
#
# Revision: 2
# Processed by: cddbd v1.5.2PL0 Copyright (c) Steve Scherf et al.
# Submitted via: audiograbber 1.83.01
#
DISCID=7308cb0a
DTITLE=Kenny Rogers - 20 Great Years
DYEAR=1990
DGENRE=Country
TTITLE0=Lucille
TTITLE1=Lady
TTITLE2=The Gambler
TTITLE3=She Believes In Me
TTITLE4=Coward Of The County
TTITLE5=You Decorated My Life
TTITLE6=Ruby, Don't Take Your Love To Town
TTITLE7=Don't Fall In Love With A Dreamer (duet with Kim Carnes)
TTITLE8=Daytime Friends
TTITLE9=Something's Burning
EXTD=
EXTT0=
EXTT1=
EXTT2=
EXTT3=
EXTT4=
EXTT5=
EXTT6=
EXTT7=
EXTT8=
EXTT9=
PLAYORDER=
